<?xml version="1.0" standalone="no"?>
<!DOCTYPE svg PUBLIC "-//W3C//DTD SVG 1.0//EN" "http://www.w3.org/TR/2001/REC-SVG-20010904/DTD/svg10.dtd">
<svg xmlns="http://www.w3.org/2000/svg" xmlns:xlink="http://www.w3.org/1999/xlink" id="body_1" width="2048" height="1536">

<g transform="matrix(9.577852 0 0 9.577852 256 -0)">
	<g>
	</g>
    <path d="M0 31.59C 0 14.143325 14.143325 0 31.59 0L31.59 0L128.78 0C 146.22667 0 160.37 14.143325 160.37 31.59L160.37 31.59L160.37 128.78C 160.37 146.22667 146.22667 160.37 128.78 160.37L128.78 160.37L31.59 160.37C 14.143325 160.37 0 146.22667 0 128.78L0 128.78L0 31.59z" stroke="none" fill="#142328" fill-rule="nonzero" />
	<g>
	</g>
    <path d="M76.86 107.45C 76.90056 104.07202 74.896935 101.00404 71.78766 99.68315C 68.67838 98.36225 65.07922 99.05003 62.67608 101.42433C 60.272934 103.79862 59.541733 107.38921 60.82498 110.51421C 62.108227 113.63922 65.15178 115.67975 68.53 115.67999C 70.73081 115.70945 72.8515 114.855064 74.41722 113.30814C 75.98293 111.76122 76.86287 109.65101 76.86 107.45zM83.66 94L83.66 121L76.73 121L76.73 118.57C 74.261734 120.56711 71.17487 121.64203 68 121.61C 62.849606 121.74685 58.030785 119.07735 55.415268 114.63838C 52.79976 110.19942 52.79976 104.69058 55.41527 100.25162C 58.030785 95.81265 62.849606 93.14315 68 93.28C 71.19759 93.26624 74.29957 94.3698 76.770004 96.4L76.770004 96.4L76.770004 94zM106.66 114.84L101.450005 114.84C 99.86001 114.84 98.840004 114.149994 98.840004 112.71999L98.840004 112.71999L98.840004 100.079994L106.66 100.079994L106.66 94L98.87 94L98.87 86.3L91.87 86.3L91.87 94L86.61 94L86.61 100.11L91.88 100.11L91.88 114.46C 91.88 118.08 94.49 120.95 99.189995 120.95L99.189995 120.95L106.689995 120.95zM122.450005 121.64C 130.45001 121.64 134.97 117.9 134.97 112.72C 134.97 109.04 132.3 106.29 126.71 105.11L126.71 105.11L120.8 103.92C 117.37 103.299995 116.29 102.67 116.29 101.43C 116.29 99.8 117.94 98.8 120.99 98.8C 124.29 98.8 126.71 99.68 127.409996 102.670006L127.409996 102.670006L134.34 102.670006C 133.95 97.060005 129.81999 93.310005 121.42999 93.310005C 114.189995 93.310005 109.09999 96.25001 109.09999 101.920006C 109.09999 105.850006 111.899994 108.41 117.93999 109.66L117.93999 109.66L124.54999 111.16C 127.14999 111.66 127.84999 112.340004 127.84999 113.4C 127.84999 115.090004 125.84999 116.15 122.69999 116.15C 118.69999 116.15 116.40999 115.28 115.51999 112.28L115.51999 112.28L108.51999 112.28C 109.51999 117.9 113.79999 121.64 122.43999 121.64zM25.38 84.43L51.51 84.43L51.51 90.66L32.44 90.66L32.44 99.590004L51 99.590004L51 105.590004L32.44 105.590004L32.44 114.590004L51.51 114.590004L51.51 120.83L25.38 120.83z" stroke="none" fill="#06C167" fill-rule="nonzero" />
	<g>
	</g>
    <path d="M134.37 52.81L134.37 47.91L132.51 47.91C 129.86713 47.804344 127.37488 49.140434 126 51.4L126 51.4L126 48.120003L120.69 48.120003L120.69 74.71001L126.05 74.71001L126.05 59.59C 126.05 55.47 128.6 52.81 132.11 52.81L132.11 52.81L134.37 52.81zM95.81 59C 96.590034 55.055973 100.049576 52.21364 104.07 52.21364C 108.09042 52.21364 111.549965 55.055973 112.33 59zM104.2 47.6C 100.517525 47.567974 96.975006 49.009125 94.3607 51.602768C 91.7464 54.19642 90.27719 57.72739 90.28 61.41C 90.28 69.34 96.549995 75.28 104.68 75.28C 109.25963 75.37247 113.6049 73.25935 116.36 69.6L116.36 69.6L112.48 66.78C 110.68583 69.29335 107.76745 70.76002 104.68 70.7C 100.221466 70.757385 96.39306 67.54152 95.68 63.139996L95.68 63.139996L117.68 63.139996L117.68 61.409996C 117.68 53.489998 111.95 47.599995 104.14 47.599995zM73.56 70.7C 68.47035 70.66691 64.368065 66.51996 64.39009 61.430256C 64.41211 56.34055 68.55013 52.229256 73.63988 52.24021C 78.729614 52.25117 82.8499 56.38024 82.85 61.469997C 82.84471 63.92673 81.86233 66.28044 80.11954 68.01198C 78.37674 69.743515 76.016716 70.710625 73.56 70.7zM59 74.71L64.31 74.71L64.31 71.37C 66.87457 73.93409 70.35349 75.373146 73.979996 75.37C 79.033066 75.50556 83.76141 72.88724 86.327896 68.53234C 88.89438 64.177444 88.89438 58.772552 86.327896 54.41766C 83.76141 50.062763 79.033066 47.444443 73.979996 47.58C 70.3684 47.577995 66.90544 49.0179 64.35999 51.58L64.35999 51.58L64.35999 38.21L59 38.21zM40.1 70.43C 45.25 70.43 49.23 66.52 49.23 60.74L49.23 60.74L49.23 38.21L54.809998 38.21L54.809998 74.71L49.28 74.71L49.28 71.32C 46.686573 73.93289 43.141003 75.37711 39.46 75.32C 31.46 75.32 25.38 69.63 25.38 61.03L25.38 61.03L25.38 38.21L31 38.21L31 60.739998C 31 66.63 34.93 70.43 40.14 70.43" stroke="none" fill="#F6F0EA" fill-rule="nonzero" />
</g>
</svg>