<svg xmlns="http://www.w3.org/2000/svg" xmlns:xlink="http://www.w3.org/1999/xlink" version="1.1" viewBox="791.21 3.46 1017.9 164.44">
<g id="surface1">
<path style=" stroke:none;fill-rule:nonzero;fill:rgb(0%,0%,0%);fill-opacity:1;" d="M 1261.769531 68.042969 C 1246.617188 68.042969 1235.871094 79.902344 1235.871094 98.101562 L 1235.871094 164.871094 L 1212.738281 164.871094 L 1212.738281 47.347656 L 1235.59375 47.347656 L 1235.59375 61.699219 C 1241.332031 52.011719 1251.875 46.199219 1263.128906 46.515625 L 1271.4375 46.515625 L 1271.4375 68.042969 Z M 1196.757812 106.109375 C 1196.757812 71.0625 1171.824219 44.855469 1138.085938 44.855469 C 1121.984375 44.964844 1106.589844 51.492188 1095.320312 62.988281 C 1084.046875 74.488281 1077.824219 90.007812 1078.03125 106.109375 C 1078.03125 141.128906 1105.039062 167.613281 1140.273438 167.613281 C 1160.246094 167.992188 1179.15625 158.628906 1190.964844 142.515625 L 1174.179688 130.214844 C 1166.363281 141.125 1153.695312 147.511719 1140.273438 147.308594 C 1120.816406 147.214844 1104.339844 132.925781 1101.492188 113.671875 L 1196.8125 113.671875 Z M 1101.992188 95.332031 C 1106.117188 77.40625 1120.441406 65.273438 1137.808594 65.273438 C 1155.175781 65.273438 1169.46875 77.40625 1173.347656 95.332031 Z M 1004.761719 44.855469 C 989.148438 44.867188 974.1875 51.121094 963.210938 62.226562 L 963.210938 3.464844 L 940.078125 3.464844 L 940.078125 164.871094 L 962.933594 164.871094 L 962.933594 149.964844 C 974.003906 161.167969 989.066406 167.515625 1004.816406 167.613281 C 1027.054688 168.085938 1047.804688 156.492188 1059.0625 137.308594 C 1070.320312 118.121094 1070.320312 94.347656 1059.0625 75.160156 C 1047.804688 55.976562 1027.054688 44.382812 1004.816406 44.855469 Z M 1003.097656 146.945312 C 986.609375 147.023438 971.703125 137.144531 965.351562 121.925781 C 959 106.707031 962.460938 89.160156 974.113281 77.492188 C 985.761719 65.820312 1003.304688 62.335938 1018.527344 68.667969 C 1033.753906 75 1043.652344 89.894531 1043.597656 106.386719 C 1043.613281 117.128906 1039.347656 127.433594 1031.75 135.023438 C 1024.148438 142.613281 1013.839844 146.867188 1003.097656 146.835938 Z M 854.898438 145.839844 C 877.226562 145.839844 894.566406 128.71875 894.566406 103.0625 L 894.566406 3.464844 L 918.527344 3.464844 L 918.527344 164.871094 L 894.84375 164.871094 L 894.84375 149.605469 C 883.660156 161.164062 868.238281 167.640625 852.15625 167.53125 C 817.722656 167.53125 791.214844 142.429688 791.214844 104.363281 L 791.214844 3.464844 L 815.617188 3.464844 L 815.617188 103.199219 C 815.617188 128.992188 832.238281 145.839844 854.898438 145.839844 Z M 854.898438 145.839844 "/>
<path style=" stroke:none;fill-rule:nonzero;fill:rgb(37.254902%,71.764706%,3.529412%);fill-opacity:1;" d="M 1328.972656 3.464844 L 1442.1875 3.464844 L 1442.1875 31.167969 L 1359.554688 31.167969 L 1359.554688 70.507812 L 1439.886719 70.507812 L 1439.886719 97.273438 L 1359.554688 97.273438 L 1359.554688 137.277344 L 1442.1875 137.277344 L 1442.1875 164.984375 L 1328.972656 164.984375 Z M 1754.847656 167.890625 C 1789.554688 167.890625 1809.113281 151.269531 1809.113281 128.441406 C 1809.113281 112.175781 1797.535156 100.042969 1773.296875 94.777344 L 1747.671875 89.542969 C 1732.796875 86.773438 1728.113281 84 1728.113281 78.460938 C 1728.113281 71.285156 1735.289062 66.878906 1748.503906 66.878906 C 1762.824219 66.878906 1773.433594 70.730469 1776.203125 83.972656 L 1806.230469 83.972656 C 1804.597656 59.039062 1786.675781 42.582031 1750.332031 42.582031 C 1718.917969 42.582031 1696.867188 55.546875 1696.867188 80.675781 C 1696.867188 98.046875 1709 109.351562 1735.179688 114.863281 L 1763.820312 121.484375 C 1775.125 123.703125 1778.144531 126.75 1778.144531 131.433594 C 1778.144531 138.882812 1769.609375 143.566406 1755.816406 143.566406 C 1738.476562 143.566406 1728.558594 139.714844 1724.707031 126.472656 L 1694.515625 126.472656 C 1698.917969 151.351562 1717.367188 167.890625 1754.847656 167.890625 Z M 1685.789062 164.871094 L 1653.292969 164.871094 C 1632.90625 164.871094 1621.605469 152.183594 1621.605469 136.167969 L 1621.605469 72.726562 L 1598.75 72.726562 L 1598.75 45.683594 L 1621.714844 45.683594 L 1621.714844 11.746094 L 1651.910156 11.746094 L 1651.910156 45.683594 L 1685.789062 45.683594 L 1685.789062 72.726562 L 1651.910156 72.726562 L 1651.910156 128.441406 C 1651.910156 134.785156 1656.3125 137.832031 1663.210938 137.832031 L 1685.789062 137.832031 Z M 1555.59375 45.742188 L 1555.59375 56.492188 C 1544.960938 47.503906 1531.480469 42.59375 1517.558594 42.636719 C 1494.875 42.160156 1473.707031 53.992188 1462.222656 73.566406 C 1450.742188 93.136719 1450.742188 117.390625 1462.222656 136.964844 C 1473.707031 156.539062 1494.875 168.367188 1517.558594 167.890625 C 1531.484375 167.953125 1544.96875 163.039062 1555.59375 154.039062 L 1555.59375 164.816406 L 1585.703125 164.816406 L 1585.703125 45.683594 Z M 1520.054688 141.738281 C 1505.28125 141.90625 1491.871094 133.136719 1486.101562 119.53125 C 1480.335938 105.929688 1483.351562 90.191406 1493.742188 79.6875 C 1504.132812 69.183594 1519.835938 65.996094 1533.5 71.617188 C 1547.160156 77.238281 1556.074219 90.558594 1556.066406 105.335938 C 1556.152344 114.953125 1552.390625 124.207031 1545.617188 131.035156 C 1538.839844 137.863281 1529.617188 141.699219 1519.996094 141.683594 Z M 1520.054688 141.738281 "/>
</g>
</svg>